<?xml version="1.0" encoding="iso-8859-1"?>
<!-- Generator: Adobe Illustrator 19.0.0, SVG Export Plug-In . SVG Version: 6.00 Build 0)  -->
<svg version="1.1" id="Layer_1" xmlns="http://www.w3.org/2000/svg" xmlns:xlink="http://www.w3.org/1999/xlink" x="0px" y="0px"
	 viewBox="0 0 512 512" style="enable-background:new 0 0 512 512;" xml:space="preserve">
<path style="fill:#EAA96E;" d="M478.626,314.624h-48.748v35.525c0,30.75-23.02,56.537-53.543,59.993l-4.372,0.492v96.443h-185.59
	V382.454l-2.117-1.477c-13.273-9.206-25.088-20.224-35.102-32.758c-15.636-19.545-26.673-42.663-32.177-67.072
	c-18.225-80.886,33.684-170.27,113.28-193.93c45.253-13.46,96.65-7.7,136.812,17.418c2.097,1.3,4.165,2.658,6.193,4.076
	c27.097,18.875,47.754,45.036,59.746,75.658L478.626,314.624z"/>
<path style="fill:#FBCB99;" d="M446.311,288.02h-48.748v35.525c0,30.75-23.02,56.537-53.543,59.993l-4.372,0.492v96.443H186.372
	v-98.018l-2.117-1.477c-13.273-9.206-25.088-20.224-35.102-32.758c-15.636-19.545-26.673-42.663-32.177-67.072
	c-18.225-80.886,33.684-170.27,113.28-193.93c45.253-13.46,96.65-7.7,136.812,17.418c14.444,15.321,25.856,33.29,33.625,53.13
	L446.311,288.02z"/>
<circle style="fill:#FFD9B6;" cx="263.661" cy="225.999" r="110.267"/>
<path style="fill:#EAA96E;" d="M371.963,415.449v91.628h-185.59V385.625c15.035,11.569,30.358,21.695,52.746,25.216
	c36.739,5.779,100.244,4.608,100.244,4.608H371.963z"/>
<path style="fill:#FBCB99;" d="M371.963,440.247v66.83H240.26v-6.819c0-33.143,26.868-60.01,60.011-60.01H371.963z"/>
<path style="fill:#AEB9CC;" d="M382.035,301.253c0,28.101-22.784,50.875-50.875,50.875c-15.606,0-29.568-7.02-38.892-18.078
	c-7.483-8.852-11.993-20.303-11.993-32.798c0-28.101,22.784-50.875,50.885-50.875c5.189,0,10.191,0.778,14.897,2.215
	C366.882,258.964,382.035,278.341,382.035,301.253z"/>
<g>
	<path style="fill:#C8D0E2;" d="M358.04,285.381c0,28.101-22.784,50.885-50.885,50.885c-5.179,0-10.181-0.778-14.887-2.215
		c-7.483-8.852-11.993-20.303-11.993-32.798c0-28.101,22.784-50.875,50.885-50.875c5.189,0,10.191,0.778,14.897,2.215
		C353.531,261.445,358.04,272.896,358.04,285.381z"/>
	<path style="fill:#C8D0E2;" d="M302.596,122.683v37.878h-28.78c-2.767,15.527-8.881,29.893-17.556,42.348l20.362,20.352
		l-26.782,26.782l-20.362-20.352c-12.446,8.674-26.821,14.789-42.348,17.556v28.77h-37.878v-28.77
		c-15.527-2.767-29.893-8.881-42.338-17.556l-2.491,2.491l-17.871,17.861l-26.782-26.782l20.362-20.352
		c-8.684-12.455-14.799-26.821-17.556-42.348h-28.78v-37.878h28.78c2.757-15.527,8.871-29.903,17.556-42.348L59.771,59.973
		l26.782-26.782l20.362,20.362c12.446-8.674,26.811-14.789,42.338-17.556V7.217h37.878v28.78
		c15.527,2.767,29.903,8.881,42.348,17.556l20.362-20.362l26.782,26.782L258.19,78.405l-1.93,1.93
		c8.674,12.446,14.789,26.821,17.556,42.348C273.816,122.683,302.596,122.683,302.596,122.683z"/>
</g>
<path style="fill:#AEB9CC;" d="M256.26,202.91l20.362,20.352l-26.782,26.782l-20.362-20.352
	c-12.446,8.674-26.821,14.789-42.348,17.556v27.284c-13.381-0.453-26.142-3.318-37.878-8.172v-19.111
	c-15.527-2.767-29.893-8.881-42.338-17.556l-2.491,2.491c-14.415-18.55-23.001-41.866-23.001-67.17
	c0-60.534,49.073-109.607,109.598-109.607c25.314,0,48.62,8.576,67.17,23.001l-1.93,1.93c8.674,12.446,14.789,26.821,17.556,42.348
	h18.334c4.923,11.727,7.857,24.497,8.379,37.878h-26.713C271.049,176.089,264.935,190.454,256.26,202.91z"/>
<path style="fill:#213847;" d="M231.635,142.188c0,35.033-28.406,63.439-63.439,63.439c-22.922,0-42.988-12.15-54.144-30.356
	c-5.898-9.63-9.295-20.962-9.295-33.083c0-35.042,28.396-63.449,63.439-63.449c12.121,0,23.454,3.397,33.083,9.305
	C219.485,99.19,231.635,119.266,231.635,142.188z"/>
<path style="fill:#324A5E;" d="M210.584,121.127c0,35.042-28.406,63.439-63.449,63.439c-12.121,0-23.454-3.397-33.083-9.295
	c-5.898-9.63-9.295-20.962-9.295-33.083c0-35.042,28.396-63.449,63.439-63.449c12.121,0,23.454,3.397,33.083,9.305
	C207.187,97.674,210.584,109.007,210.584,121.127z"/>
<circle style="fill:#42647A;" cx="165.741" cy="137.058" r="33.506"/>
<circle style="fill:#FBCB99;" cx="168.193" cy="142.188" r="21.056"/>
<path d="M264.205,414.841c4.768,0.401,9.629,0.604,14.445,0.604v-14.769c-4.406,0-8.851-0.185-13.21-0.551L264.205,414.841z"/>
<path d="M437.691,182.829l-0.094-0.253c-12.353-31.534-33.628-58.473-61.524-77.905c-28.551-19.887-62.096-30.442-97.008-30.526
	c-0.143,0-0.279,0-0.421,0c-1.912,0-3.817,0.042-5.719,0.104l14.118-14.119l-37.22-37.22L228.5,44.233
	c-10.547-6.55-21.934-11.272-33.986-14.094V0h-52.638v30.14c-12.051,2.822-23.439,7.544-33.986,14.094L86.567,22.91L49.345,60.13
	l21.324,21.324c-6.549,10.547-11.272,21.935-14.093,33.986H26.435v52.638h30.141c2.822,12.051,7.544,23.439,14.093,33.986
	l-21.324,21.323l37.22,37.22l21.323-21.324c0.067,0.041,0.136,0.079,0.202,0.12c-0.052,1.721-0.089,3.444-0.091,5.174
	c-0.048,38.674,13.199,76.573,37.301,106.715c10.385,12.987,22.604,24.34,36.146,33.734V512h195.437l0.001-96.97
	c32.54-3.68,57.909-31.373,57.909-64.879v-30.605h50.77L437.691,182.829z M86.567,239.721l-16.334-16.334l19.507-19.506
	l-3.537-5.073c-8.307-11.917-13.805-25.176-16.341-39.409l-1.084-6.09H41.205V130.21h27.573l1.084-6.09
	c2.535-14.235,8.033-27.494,16.341-39.409l3.537-5.073L70.232,60.13l16.334-16.334l19.506,19.507l5.072-3.537
	c11.917-8.307,25.176-13.805,39.409-16.341l6.09-1.085V14.769h23.099v27.572l6.09,1.085c14.235,2.535,27.493,8.032,39.409,16.341
	l5.073,3.537l19.507-19.507l16.334,16.334l-19.507,19.507l3.537,5.073c8.308,11.916,13.805,25.175,16.34,39.409l1.085,6.09h27.573
	v23.099h-27.573l-1.085,6.09c-2.534,14.234-8.032,27.493-16.34,39.409l-3.537,5.072l19.507,19.506l-16.334,16.334l-19.507-19.507
	l-5.073,3.537c-11.916,8.308-25.175,13.805-39.409,16.341l-6.09,1.085v27.572h-23.099v-27.572l-6.09-1.085
	c-14.235-2.535-27.493-8.033-39.409-16.341l-5.073-3.537L86.567,239.721z M420.027,350.15c0,27.86-22.665,50.526-50.526,50.526
	h-7.385h-22.755v14.769h22.755v81.786H196.218V394.204c13.446,7.442,27.883,13.075,42.897,16.637l3.41-14.37
	c-69.8-16.56-118.72-77.795-119.731-149.41c6.147,2.656,12.512,4.779,19.082,6.318v30.14h52.638v-30.14
	c12.052-2.822,23.438-7.543,33.986-14.093l21.323,21.324l37.22-37.22l-21.323-21.323c6.55-10.547,11.272-21.935,14.093-33.986h30.14
	v-52.638h-30.14c-2.147-9.176-5.405-17.963-9.724-26.291c2.839-0.151,5.69-0.234,8.556-0.234c0.127,0,0.258,0,0.385,0
	c64.417,0.154,121.227,38.976,144.766,98.923l40.949,116.937h-29.949v-16.759h-14.769v16.759v7.385v37.988H420.027z"/>
<path d="M168.194,213.828c39.739,0,72.069-32.33,72.069-72.069s-32.33-72.069-72.069-72.069s-72.069,32.33-72.069,72.069
	C96.126,181.497,128.456,213.828,168.194,213.828z M225.494,141.759c0,31.595-25.704,57.3-57.3,57.3s-57.3-25.704-57.3-57.3
	s25.704-57.3,57.3-57.3S225.494,110.164,225.494,141.759z"/>
<path d="M168.194,113.873c-15.377,0-27.886,12.51-27.886,27.886s12.511,27.886,27.886,27.886s27.886-12.51,27.886-27.886
	C196.081,126.382,183.571,113.873,168.194,113.873z M181.312,141.759c0,7.233-5.884,13.117-13.117,13.117
	c-7.233,0-13.117-5.885-13.117-13.117c0-7.232,5.885-13.117,13.117-13.117C175.426,128.642,181.312,134.526,181.312,141.759z"/>
<rect x="355.112" y="172.642" width="14.769" height="16.237"/>
<rect x="388.736" y="216.222" width="14.769" height="16.237"/>
<rect x="456.586" y="113.142" width="14.769" height="16.237"/>
<rect x="456.586" y="25.364" width="14.769" height="16.237"/>
<rect x="363.205" y="22.606" width="14.769" height="16.237"/>
<rect x="205.086" y="311.07" width="14.769" height="16.237"/>
<rect x="45.726" y="311.07" width="14.769" height="16.237"/>
<rect x="248.892" y="351.34" width="14.769" height="16.237"/>
<rect x="131.013" y="424.005" width="14.769" height="16.237"/>
<rect x="26.435" y="442.683" width="14.769" height="16.237"/>
<path d="M331.156,243.783c-31.69,0-57.471,25.781-57.471,57.471s25.781,57.471,57.471,57.471s57.471-25.781,57.471-57.471
	C388.627,269.564,362.846,243.783,331.156,243.783z M288.455,301.254c0-23.546,19.156-42.702,42.702-42.702
	s42.702,19.156,42.702,42.702s-19.156,42.702-42.702,42.702S288.455,324.8,288.455,301.254z"/>
<path style="fill:#FFD9B6;" d="M362.116,497.231h-88.43l0,0c0-19.707,15.975-35.682,35.682-35.682h52.748L362.116,497.231
	L362.116,497.231z"/>
<g>
</g>
<g>
</g>
<g>
</g>
<g>
</g>
<g>
</g>
<g>
</g>
<g>
</g>
<g>
</g>
<g>
</g>
<g>
</g>
<g>
</g>
<g>
</g>
<g>
</g>
<g>
</g>
<g>
</g>
</svg>
